<?xml version="1.0" encoding="UTF-8" standalone="no"?>
<!-- Created with Inkscape (http://www.inkscape.org/) -->

<svg
   version="1.1"
   id="svg2"
   width="4406.5732"
   height="4316.8398"
   viewBox="0 0 4406.5732 4316.8398"
   sodipodi:docname="vecteezy_chapter-vector-icon-design_16497580-0.eps"
   xmlns:inkscape="http://www.inkscape.org/namespaces/inkscape"
   xmlns:sodipodi="http://sodipodi.sourceforge.net/DTD/sodipodi-0.dtd"
   xmlns="http://www.w3.org/2000/svg"
   xmlns:svg="http://www.w3.org/2000/svg">
  <defs
     id="defs6">
    <linearGradient
       x1="0"
       y1="0"
       x2="1"
       y2="0"
       gradientUnits="userSpaceOnUse"
       gradientTransform="matrix(-2.694e-4,6164.2,6164.2,2.694e-4,9115.2,12605)"
       spreadMethod="pad"
       id="linearGradient18">
      <stop
         style="stop-opacity:1;stop-color:#e5e6e5"
         offset="0"
         id="stop14" />
      <stop
         style="stop-opacity:1;stop-color:#cbcaca"
         offset="1"
         id="stop16" />
    </linearGradient>
    <linearGradient
       x1="0"
       y1="0"
       x2="1"
       y2="0"
       gradientUnits="userSpaceOnUse"
       gradientTransform="matrix(9.14e-5,-7667.12,-7667.12,-9.14e-5,8483.05,19520.7)"
       spreadMethod="pad"
       id="linearGradient26">
      <stop
         style="stop-opacity:1;stop-color:#f8951d"
         offset="0"
         id="stop22" />
      <stop
         style="stop-opacity:1;stop-color:#f26122"
         offset="1"
         id="stop24" />
    </linearGradient>
    <linearGradient
       x1="0"
       y1="0"
       x2="1"
       y2="0"
       gradientUnits="userSpaceOnUse"
       gradientTransform="matrix(7.268e-4,-60945.1,-60945.1,-7.268e-4,8483.18,46746.2)"
       spreadMethod="pad"
       id="linearGradient34">
      <stop
         style="stop-opacity:1;stop-color:#e0a962"
         offset="0"
         id="stop30" />
      <stop
         style="stop-opacity:1;stop-color:#f0c077"
         offset="1"
         id="stop32" />
    </linearGradient>
    <linearGradient
       x1="0"
       y1="0"
       x2="1"
       y2="0"
       gradientUnits="userSpaceOnUse"
       gradientTransform="matrix(7.267e-4,-60936,-60936,-7.267e-4,24566.4,46740.9)"
       spreadMethod="pad"
       id="linearGradient42">
      <stop
         style="stop-opacity:1;stop-color:#e0a962"
         offset="0"
         id="stop38" />
      <stop
         style="stop-opacity:1;stop-color:#f0c077"
         offset="1"
         id="stop40" />
    </linearGradient>
    <linearGradient
       x1="0"
       y1="0"
       x2="1"
       y2="0"
       gradientUnits="userSpaceOnUse"
       gradientTransform="matrix(1.286e-4,-10787.5,-10787.5,-1.286e-4,24566.1,31096.1)"
       spreadMethod="pad"
       id="linearGradient50">
      <stop
         style="stop-opacity:1;stop-color:#ed1c24"
         offset="0"
         id="stop46" />
      <stop
         style="stop-opacity:1;stop-color:#8e181a"
         offset="1"
         id="stop48" />
    </linearGradient>
  </defs>
  <sodipodi:namedview
     id="namedview4"
     pagecolor="#ffffff"
     bordercolor="#000000"
     borderopacity="0.25"
     inkscape:showpageshadow="2"
     inkscape:pageopacity="0.0"
     inkscape:pagecheckerboard="0"
     inkscape:deskcolor="#d1d1d1" />
  <g
     id="g8"
     inkscape:groupmode="layer"
     inkscape:label="ink_ext_XXXXXX"
     transform="matrix(1.3333333,0,0,-1.3333333,0,4316.84)">
    <g
       id="g10"
       transform="scale(0.1)">
      <path
         d="M 7780.32,17228.1 V 14146 l 2669.78,1541.3 z m 702.86,2292.6 c -2113.7,0 -3833.56,-1719.6 -3833.56,-3833.4 0,-2113.9 1719.59,-3833.7 3833.56,-3833.7 2113.82,0 3833.32,1719.8 3833.32,3833.7 0,2113.8 -1719.5,3833.4 -3833.32,3833.4 z m 0,-8550.4 c 2600.62,0 4716.72,2115.9 4716.72,4716.7 0,2600.7 -2115.8,4716.6 -4716.72,4716.6 -2600.79,0 -4716.73,-2115.7 -4716.73,-4716.6 0,-2600.8 2115.81,-4716.7 4716.73,-4716.7 z M 13601.1,7426.6 H 3614.63 c -581.38,0 -581.38,883 0,883 h 9986.47 c 581.3,0 581.4,-883 0,-883 z m 0,16615.4 H 3614.63 c -581.38,0 -581.38,883.2 0,883.2 h 9986.47 c 581.3,0 581.4,-883.2 0,-883.2 z M 30106.5,7167.3 H 19694.9 c -581.5,0 -581.5,883.1 0,883.1 h 10411.6 c 581.5,0 581.5,-883.1 0,-883.1 z m 0,3289 H 19694.9 c -581.5,0 -581.5,883.3 0,883.3 h 10411.6 c 581.5,0 581.5,-883.3 0,-883.3 z m 0,3289.2 H 19694.9 c -581.5,0 -581.5,883.3 0,883.3 h 10411.6 c 581.5,0 581.5,-883.3 0,-883.3 z m 0,3288.9 H 19694.9 c -581.5,0 -581.5,883.2 0,883.2 h 10411.6 c 581.5,0 581.5,-883.2 0,-883.2 z m -5566.4,6280.3 c -112.9,0 -226.1,-43.3 -312.3,-129.4 l -1354,-1354 v 6419.8 l 3384.6,1339.3 v -7777 l -1409.7,1375.7 c -85.9,83.9 -197.2,125.6 -308.6,125.6 z M 16966.2,1055.6 V 25913 l 5024.9,1988.6 v -7136.3 c 0,-393.2 476.7,-589.1 753.8,-312.3 l 1799.4,1799.3 1847.2,-1803 c 278.5,-271.7 749.9,-74.4 749.9,316 v 9174.6 l 3827.1,1514.6 c 571.6,226.7 1198,-674.1 1198,-1391.1 v -22490 c 0,-589.7 -424.4,-978.4 -1514.2,-1386.8 L 16966.2,1055.6 Z M 1894.52,31491.7 c -481.97,0 -1011.352,-747.6 -1011.352,-1428.2 V 7573.4 c 0,-589.7 424.452,-978.7 1513.932,-1386.8 l 13686.1,-5131 V 25913 L 2080.74,31454.6 c -62.9,24.8 -123.97,37.1 -186.22,37.1 z M 16383,0 l 296.7,5 14282.8,5354.2 c 677.1,254 2086.8,782.5 2086.8,2214.2 v 22490 c 0,1275.4 -1153.3,2707.9 -2405.7,2212.3 L 16524.7,26688.1 2405.64,32275.7 C 1155.01,32771.4 0,31340 0,30063.4 V 7573.4 C 0,6141.7 1409.66,5613.2 2087.3,5359.2 L 16369.6,4.80078 16383,0 Z M 7569.41,13112 c -375.2,0 -672.39,292.6 -672.39,641.6 l 1.18,3895.6 c 39.92,521.5 602.53,760.2 1020.54,518.6 L 11046.5,16362 c 496.7,-302.3 468.4,-1064.5 18.4,-1339 L 7914.8,13203.6 c -104.4,-59.9 -223.78,-91.6 -345.39,-91.6 v 0"
         style="fill:#333333;fill-opacity:1;fill-rule:evenodd;stroke:none"
         id="path12" />
      <path
         d="m 7780.32,14146 2669.78,1541.3 -2669.78,1540.8 z"
         style="fill:url(#linearGradient18);fill-opacity:1;fill-rule:evenodd;stroke:none"
         id="path20" />
      <path
         d="m 8483.18,11853.6 c 2113.82,0 3833.32,1719.8 3833.32,3833.7 0,2113.8 -1719.5,3833.4 -3833.32,3833.4 -2113.7,0 -3833.56,-1719.6 -3833.56,-3833.4 0,-2113.9 1719.59,-3833.7 3833.56,-3833.7 z M 11064.9,15023 7914.8,13203.6 c -104.4,-59.9 -223.78,-91.6 -345.39,-91.6 -375.2,0 -672.39,292.6 -672.39,641.6 l 1.18,3895.6 c 39.92,521.5 602.53,760.2 1020.54,518.6 L 11046.5,16362 c 496.7,-302.3 468.4,-1064.5 18.4,-1339 v 0"
         style="fill:url(#linearGradient26);fill-opacity:1;fill-rule:evenodd;stroke:none"
         id="path28" />
      <path
         d="m 3614.63,8309.6 h 9986.47 c 581.3,0 581.4,-883 0,-883 H 3614.63 c -581.38,0 -581.38,883 0,883 z M 13601.1,24042 H 3614.63 c -581.38,0 -581.38,883.2 0,883.2 h 9986.47 c 581.3,0 581.4,-883.2 0,-883.2 z M 2397.1,6186.6 16083.2,1055.6 V 25913 L 2080.74,31454.6 c -62.9,24.8 -123.97,37.1 -186.22,37.1 -481.97,0 -1011.352,-747.6 -1011.352,-1428.2 V 7573.4 c 0,-589.7 424.452,-978.7 1513.932,-1386.8 z M 13199.9,15687 c 0,-2600.8 -2116.1,-4716.7 -4716.72,-4716.7 -2600.92,0 -4716.73,2115.9 -4716.73,4716.7 0,2600.9 2115.94,4716.6 4716.73,4716.6 2600.92,0 4716.72,-2115.9 4716.72,-4716.6 v 0"
         style="fill:url(#linearGradient34);fill-opacity:1;fill-rule:evenodd;stroke:none"
         id="path36" />
      <path
         d="m 19694.9,8050.4 h 10411.6 c 581.5,0 581.5,-883.1 0,-883.1 H 19694.9 c -581.5,0 -581.5,883.1 0,883.1 z m 10411.6,8984 H 19694.9 c -581.5,0 -581.5,883.2 0,883.2 h 10411.6 c 581.5,0 581.5,-883.2 0,-883.2 z m 0,-3288.9 H 19694.9 c -581.5,0 -581.5,883.3 0,883.3 h 10411.6 c 581.5,0 581.5,-883.3 0,-883.3 z M 19694.9,10456.3 c -581.5,0 -581.5,883.3 0,883.3 h 10411.6 c 581.5,0 581.5,-883.3 0,-883.3 H 19694.9 Z M 16966.2,25913 V 1055.6 l 13686.1,5131 c 1089.8,408.4 1514.2,797.1 1514.2,1386.8 v 22490 c 0,717 -626.4,1617.8 -1198,1391.1 l -3827.1,-1514.6 v -9174.6 c 0,-390.4 -471.4,-587.7 -749.9,-316 l -1847.2,1803 -1799.4,-1799.3 c -277.1,-276.8 -753.8,-80.9 -753.8,312.3 v 7136.3 L 16966.2,25913 v 0"
         style="fill:url(#linearGradient42);fill-opacity:1;fill-rule:evenodd;stroke:none"
         id="path44" />
      <path
         d="m 24848.7,23189.1 1409.7,-1375.7 v 7777 l -3384.6,-1339.3 v -6419.8 l 1354,1354 c 86.2,86.1 199.4,129.4 312.3,129.4 111.4,0 222.7,-41.7 308.6,-125.6"
         style="fill:url(#linearGradient50);fill-opacity:1;fill-rule:evenodd;stroke:none"
         id="path52" />
    </g>
  </g>
</svg>
